<?xml version="1.0" encoding="utf-8"?>
<!-- Generator: Adobe Illustrator 22.0.1, SVG Export Plug-In . SVG Version: 6.00 Build 0)  -->
<svg version="1.1" id="Layer_1" xmlns="http://www.w3.org/2000/svg" xmlns:xlink="http://www.w3.org/1999/xlink" x="0px" y="0px"
	 viewBox="0 0 108.3 125" style="enable-background:new 0 0 108.3 125;" xml:space="preserve">
<style type="text/css">
	.st0{fill:#F8F8F8;}
	.st1{fill:#C0C0C0;}
	.st2{opacity:0.15;}
	.st3{stroke:#000000;stroke-width:9.375000e-02;}
</style>
<title>mockturtle</title>
<polygon class="st0" points="0,31.2 54.2,0 108.3,31.2 108.3,93 54.2,125 0,93 "/>
<g id="Mask-2">
	<path id="path-2-2" class="st1" d="M7,36L53.8,9l46.8,27v53.3L53.8,117L7,89.3V36z"/>
</g>
<g id="Path-295" class="st2">
	<path d="M101.8,36L54,65.3l47.3,24.2L101.8,36z"/>
	<path d="M6,36l47.8,29.3L6.6,89.6L6,36z"/>
</g>
<path id="path9046" class="st3" d="M44.3,39.8c1.9-0.1,3.9-0.4,5.8,0c0.6,0.2,1.3,0.3,1.9,0.2
	c0.2,0,0.7,0.1,1,0.1c0.4,0.2,0.8,0.3,1.2,0.2l0.3,0.1c0.2,0.1,0.6,0.2,0.8,0.3l0.3,0l0.3,0.1c0.2,0.1,0.6,0.2,0.8,0.3l0.3,0.1
	c0.2,0.1,0.6,0.2,0.8,0.3c0.2,0.1,0.6,0.3,0.8,0.4L59,42c0.1,0.1,0.4,0.2,0.5,0.2l0.2,0.1c0.1,0.1,0.3,0.2,0.5,0.2l0.2,0.1
	c0.1,0.1,0.3,0.2,0.4,0.3c0.1,0.1,0.3,0.2,0.4,0.3l0.2,0.1c0.1,0.1,0.3,0.2,0.4,0.3c0.1,0.1,0.3,0.2,0.4,0.3l0.2,0.2
	c0.1,0.1,0.3,0.2,0.4,0.3c0.1,0.1,0.3,0.2,0.4,0.3c0.1,0.1,0.3,0.2,0.4,0.3c0.1,0.1,0.3,0.3,0.4,0.3l0.2,0.1
	c0.1,0.1,0.3,0.3,0.4,0.3c0.1,0.1,0.3,0.3,0.4,0.4c0.1,0.1,0.3,0.3,0.4,0.4c0.1,0.1,0.3,0.3,0.4,0.4l0.1,0.2
	c0.1,0.1,0.3,0.3,0.4,0.4c0.1,0.1,0.3,0.3,0.3,0.4c0.1,0.1,0.3,0.3,0.3,0.4c0.1,0.1,0.3,0.3,0.4,0.4c0.1,0.1,0.3,0.3,0.4,0.4
	c0.1,0.1,0.3,0.3,0.3,0.4c0.1,0.1,0.3,0.3,0.3,0.4l0.1,0.2c0.1,0.1,0.3,0.3,0.3,0.4c0.1,0.1,0.2,0.3,0.3,0.4
	c0.1,0.1,0.3,0.3,0.3,0.4s0.3,0.3,0.3,0.4c0.1,0.1,0.3,0.3,0.3,0.4c0.1,0.1,0.3,0.3,0.3,0.4c0.1,0.1,0.3,0.3,0.3,0.4l0.2,0.2
	c0.1,0.1,0.3,0.3,0.3,0.4c0.1,0.1,0.3,0.3,0.4,0.4c0.1,0.1,0.3,0.3,0.4,0.4c0.1,0.1,0.3,0.3,0.4,0.4c0.1,0.1,0.3,0.3,0.4,0.4
	c0.1,0.1,0.3,0.3,0.4,0.3c0.1,0.1,0.3,0.2,0.4,0.3c0.1,0.1,0.3,0.2,0.4,0.3l0.2,0.1c0.1,0.1,0.3,0.2,0.4,0.3
	c0.1,0.1,0.3,0.2,0.4,0.3l0.2,0.1c0.1,0.1,0.3,0.2,0.4,0.3l0.3,0.1l0.3,0.1c0.1,0.1,0.4,0.2,0.5,0.2l0.3,0.1
	c0.2,0.1,0.6,0.3,0.8,0.3l0.3,0.1c0.2,0.1,0.6,0.3,0.8,0.4l0.2,0.2c0,0.1,0,0.4,0,0.6l0,0.3c-0.1,0.1-0.2,0.3-0.2,0.4
	c0,0.1-0.1,0.3-0.2,0.4l-0.1,0.2c0,0.1-0.1,0.3-0.1,0.3c0,0.1-0.1,0.2-0.1,0.3l-0.1,0.2l-0.1,0.2c0.1,0,0.2-0.1,0.3-0.2l0.2,0
	c0.1,0,0.3,0,0.4-0.1l0.3,0c0.2-0.1,0.6-0.2,0.8-0.3l0.3-0.1c0.1-0.1,0.3-0.2,0.4-0.3l0.3-0.1c0.1-0.1,0.3-0.2,0.4-0.3L82,60
	c0.1-0.1,0.3-0.2,0.4-0.3l0.3-0.1c0.1-0.1,0.3-0.2,0.4-0.3l0.3-0.1c0.1-0.1,0.3-0.2,0.4-0.3l0.3-0.1c0.1-0.1,0.3-0.2,0.4-0.3
	l0.2-0.1c0.1-0.1,0.3-0.2,0.4-0.3l0.3-0.1c0.1-0.1,0.3-0.2,0.4-0.3c0.2-0.1,0.6-0.3,0.8-0.3l0.3-0.1c0.1-0.1,0.4-0.2,0.5-0.2
	l0.3-0.1c0.2-0.1,0.6-0.2,0.8-0.3l0.3-0.1c0.2-0.1,0.6-0.2,0.8-0.3c0.2,0,0.5-0.1,0.6-0.1c0.2-0.1,0.7-0.2,0.9-0.2
	c0.3,0,0.8-0.1,1.1-0.1c0.6,0,1.2,0.1,1.8,0.1l0.3,0l0.3,0.1c0.2,0.1,0.7,0.2,0.9,0.3c0.1,0.1,0.2,0.2,0.3,0.3l0.2,0.1
	c0.1,0.1,0.3,0.2,0.4,0.3c0.1,0.1,0.3,0.2,0.4,0.3l0.2,0.2c0.1,0.1,0.3,0.2,0.4,0.3c0.1,0.1,0.3,0.3,0.4,0.3
	c0.1,0.1,0.2,0.3,0.3,0.4c0.1,0.1,0.2,0.3,0.3,0.4l0.1,0.2c0.1,0.1,0.2,0.3,0.3,0.4l0,0.3c0,0.5,0,0.9,0.1,1.4l0,0.4l-0.1,0.3
	c-0.1,0.2-0.2,0.7-0.3,1c-0.1,0.1-0.2,0.2-0.3,0.3l-0.1,0.2c-0.1,0.1-0.2,0.3-0.3,0.4c-0.1,0.1-0.2,0.3-0.3,0.4
	c-0.1,0.1-0.2,0.2-0.3,0.3C97.2,64.8,97,64.9,97,65c-0.1,0.1-0.3,0.2-0.4,0.3l-0.2,0.1c-0.1,0.1-0.3,0.2-0.4,0.3
	c-0.2,0.1-0.6,0.3-0.8,0.4c-0.2,0.1-0.5,0.1-0.6,0.2c-0.2,0.1-0.6,0.2-0.9,0.3l-0.3,0.1c-0.2,0.1-0.6,0.2-0.8,0.3L92.2,67
	c-0.2,0.1-0.6,0.2-0.8,0.3c-0.2,0-0.5,0.1-0.6,0.1c-0.2,0.1-0.6,0.2-0.8,0.3l-0.3,0.1C89.4,67.8,89,68,88.8,68
	c-0.2,0-0.5,0.1-0.6,0.1c-0.2,0.1-0.6,0.2-0.8,0.3l-0.3,0.1c-0.2,0.1-0.6,0.2-0.8,0.3L86,68.9l-0.3,0c-0.2,0.1-0.6,0.2-0.8,0.3
	l-0.3,0.1c-0.2,0.1-0.6,0.2-0.8,0.3l-0.3,0.1c-0.2,0.1-0.6,0.2-0.8,0.3L82.3,70l-0.3,0c-0.2,0.1-0.6,0.2-0.8,0.3l-0.3,0.1
	c-0.2,0.1-0.6,0.2-0.8,0.3l-0.3,0.1c-0.2,0.1-0.6,0.2-0.8,0.3L78.7,71c-0.2,0.1-0.6,0.2-0.8,0.3c-0.2,0.1-0.6,0.2-0.8,0.3l-0.3,0.1
	c-0.2,0-0.6,0.1-0.8,0.2l-0.2,0.1l0.1,0.2c0.1,0.3,0.2,0.6,0.3,0.8l0.1,0.2c0.2,0,0.5,0,0.6,0h0.3c0.2,0.1,0.6,0.2,0.8,0.3l0.3,0.1
	c0.2,0.1,0.6,0.2,0.8,0.3l0.3,0.1c0.2,0.1,0.6,0.2,0.8,0.3l0.3,0.1c0.2,0.1,0.6,0.2,0.8,0.3l0.3,0l0.3,0.1c0.4,0.3,0.7,0.4,1.2,0.3
	l0.3,0c0.2,0,0.7,0.1,1,0.2c0.2,0.1,0.7,0.2,0.9,0.2c0.2,0,0.5,0.1,0.6,0.1c0.2,0.1,0.6,0.2,0.8,0.3l0.2,0.1c0.1,0,0.4,0.1,0.5,0.1
	l0.3,0c-0.1,0.2-0.2,0.6-0.3,0.8c-0.2,0.5-0.4,0.9-0.6,1.4c-0.6,0-1.1,0.3-1.5,0.6c-0.1,0.1-0.3,0.2-0.4,0.3l-0.2,0.2
	c-0.1,0.1-0.3,0.2-0.4,0.3c-0.4,0.1-0.9,0.3-1.2,0.7c-0.1,0.1-0.4,0.4-0.5,0.6L82.5,81c-0.1,0.1-0.3,0.2-0.4,0.3l-0.2,0l-0.2,0
	c-0.1-0.1-0.3-0.1-0.4-0.2c-0.1-0.1-0.3-0.2-0.4-0.2c-0.1-0.1-0.3-0.2-0.4-0.3l-0.2-0.1c-0.1-0.1-0.3-0.2-0.4-0.3
	c-0.1-0.1-0.3-0.2-0.4-0.3l-0.2-0.1c-0.1-0.1-0.3-0.2-0.4-0.3c-0.1-0.1-0.3-0.2-0.4-0.3L78,79c-0.1-0.1-0.3-0.2-0.5-0.3l-0.2-0.1
	c-0.1-0.1-0.3-0.2-0.4-0.3c-0.1-0.1-0.3-0.2-0.5-0.3l-0.2-0.2c-0.1-0.1-0.3-0.2-0.4-0.3c-0.1-0.1-0.3-0.2-0.4-0.3l-0.2-0.2
	c-0.1-0.1-0.3-0.2-0.4-0.3c-0.1-0.1-0.3-0.2-0.4-0.3c-0.1-0.1-0.3-0.2-0.4-0.3l-0.2-0.1c-0.1-0.1-0.3-0.2-0.4-0.3
	c-0.1-0.1-0.3-0.2-0.4-0.3l-0.2-0.1c-0.1-0.1-0.3-0.2-0.4-0.3c-0.1-0.1-0.3-0.2-0.4-0.3l-0.2-0.1c-0.1-0.1-0.3-0.2-0.4-0.2
	c-0.1-0.1-0.3-0.2-0.4-0.2l-0.3-0.1l-0.3-0.1c-0.2-0.5-0.5-0.5-0.8-0.1c-0.2,0-0.7,0-1,0c-0.7-0.1-1.3,0.2-1.6,0.8L66.4,75
	c-0.1,0.2-0.2,0.6-0.2,0.8l-0.1,0.3c-0.1,0.2-0.2,0.6-0.3,0.8l-0.1,0.3c-0.1,0.2-0.2,0.7-0.2,0.9c0,0.2,0.1,0.5,0.1,0.7l-0.2-0.1
	c0,0.1,0.1,0.3,0.1,0.4c0.1,0.1,0.2,0.4,0.2,0.5c0.1,0.1,0.2,0.3,0.2,0.4c0.1,0.1,0.2,0.3,0.3,0.4c0.1,0.1,0.3,0.2,0.4,0.3l0.2,0.2
	c0.1,0.1,0.3,0.2,0.4,0.3c0.1,0.1,0.2,0.2,0.3,0.3l0.2,0.1c0.1,0.1,0.2,0.3,0.3,0.4c0,0.1,0.1,0.4,0.1,0.5c0,0.1,0,0.3,0,0.5
	l0.1-0.2c-0.1,0.2-0.2,0.6-0.3,0.8c0,0.1-0.1,0.4-0.1,0.5l0.2-0.2l-0.2,0.2c-0.1,0.2-0.4,0.5-0.5,0.7l-0.1,0.3c0,0.1,0,0.4,0,0.6
	c-0.2,0-0.5,0.1-0.7,0.1c-0.6,0-1.1,0.1-1.6,0.4c-0.3,0-0.8,0.1-1,0.1l-0.3,0c-0.6,0-1.9,0-2.5,0c-0.3,0-0.8-0.1-1.1-0.2
	c-0.4-0.3-0.8-0.4-1.2-0.3l-0.3-0.1c-0.1-0.1-0.3-0.2-0.5-0.2l-0.2-0.1c-0.1-0.1-0.3-0.2-0.4-0.3l-0.2-0.1c-0.1-0.1-0.3-0.3-0.3-0.4
	l-0.1-0.2c-0.1-0.1-0.2-0.4-0.2-0.5l-0.1-0.3c0-0.3-0.1-0.8-0.1-1c0-0.3,0.1-0.8,0.1-1c0.1-0.1,0.2-0.4,0.2-0.5c0-0.2,0-0.5,0-0.6
	l0.1-0.3c0.1-0.1,0.2-0.4,0.3-0.5c0-0.2,0-0.5,0-0.6l0.1-0.3c0.1-0.2,0.2-0.6,0.3-0.9l0.1-0.3c0.1-0.1,0.2-0.3,0.3-0.4
	c0-0.1,0.1-0.4,0.1-0.6l0.1-0.3c0.1-0.1,0.2-0.4,0.2-0.6L58,75.7c-1-0.3-2-0.6-3-0.9c-0.1,0-0.4,0.1-0.6,0.1
	c-1.3-0.1-2.6-0.1-3.9-0.1c-2.3-0.1-4.7,0.1-7,0c-0.2,0.1-0.6,0.2-0.8,0.3c-0.1,0-0.4,0.1-0.5,0.1c-0.1,0-0.3,0.1-0.4,0.1l0.3,0.1
	c-0.5,0-0.6,0.2-0.3,0.7l0,0.3c0,0.1,0,0.4,0,0.6c0.1,0.1,0.2,0.4,0.2,0.5l0.1,0.3c0,0.2,0.1,0.7,0.1,0.9c0.1,0.1,0.2,0.4,0.2,0.5
	l0.1,0.3c0.1,0.2,0.3,0.6,0.4,0.7c0.2,0.1,0.5,0.3,0.7,0.4c0.2,0,0.5,0.1,0.6,0.2c0.5,0.2,1,0.4,1.5,0.4c0.2,0,0.5,0.1,0.7,0.1
	c0,0.2,0,0.5,0,0.6l0,0.3c0,0.2,0.1,0.5,0.1,0.6L46.5,83c0,0.2,0,0.5-0.1,0.6c-0.4-0.1-0.7,0.1-0.9,0.5c-0.2,0.1-0.5,0.4-0.6,0.5
	c0,0.1-0.1,0.4-0.2,0.6l-0.3,0c-0.4-0.1-0.9,0-1.2,0.3c-0.6,0-1.8,0-2.5,0c-0.7-0.1-1.3-0.2-2-0.2l-0.3,0c-0.2,0-0.5-0.1-0.6-0.1
	c-0.2-0.1-0.6-0.2-0.8-0.2l-0.3-0.1c-0.1-0.1-0.3-0.2-0.4-0.3l-0.2-0.1c-0.1-0.1-0.3-0.2-0.4-0.3c-0.1-0.2-0.3-0.5-0.5-0.6
	c-0.1-0.2-0.2-0.6-0.3-0.8c0-0.2-0.1-0.5-0.2-0.6c-0.1-0.2-0.2-0.6-0.2-0.9c0-0.2-0.1-0.5-0.1-0.6c0.1-0.4,0-0.8-0.3-1.2
	c0-0.2-0.1-0.5-0.1-0.6c0.1-0.4,0-0.8-0.2-1.2c0-0.2-0.1-0.7-0.1-1c0.1-0.4,0-0.8-0.2-1.2c0-0.2-0.1-0.5-0.2-0.6
	c-0.1-0.1-0.4-0.4-0.6-0.6c-0.4-0.1-0.8-0.2-1.2-0.3c-0.4-0.3-1-0.1-1.1,0.4c-0.1,0.1-0.3,0.2-0.3,0.3L30,74.8
	c-0.1,0.1-0.2,0.3-0.3,0.4l-0.1,0.2c-0.1,0.1-0.2,0.3-0.3,0.4c-0.1,0.1-0.2,0.3-0.3,0.4l-0.1,0.2c-0.1,0.1-0.2,0.3-0.3,0.4
	c-0.1,0.1-0.2,0.3-0.3,0.4l-0.1,0.2c-0.1,0.1-0.2,0.3-0.3,0.4c-0.1,0.1-0.2,0.3-0.3,0.4l-0.2,0.2c-0.1,0.1-0.3,0.3-0.3,0.4
	c-0.1,0.1-0.3,0.3-0.3,0.4c-0.1,0.1-0.3,0.3-0.4,0.4c-0.1,0.1-0.3,0.3-0.4,0.4c-0.1,0.1-0.3,0.3-0.4,0.3c-0.1,0.1-0.3,0.2-0.4,0.3
	c-0.1,0.1-0.3,0.2-0.4,0.3l-0.2,0.1c-0.1,0.1-0.3,0.2-0.4,0.3L24,81.6c-0.1,0.1-0.3,0.2-0.4,0.2l-0.2,0.1c-0.1,0-0.4,0.1-0.5,0.1
	l-0.3,0c-0.1,0-0.4-0.1-0.5-0.1l-0.3,0c-0.1,0-0.4-0.1-0.5-0.2c-0.1-0.1-0.3-0.2-0.5-0.3l-0.2-0.2c-0.1-0.1-0.3-0.3-0.4-0.4
	c-0.1,0-0.4-0.1-0.5-0.2c0-0.4-0.2-0.8-0.6-1c-0.1-0.1-0.2-0.4-0.2-0.5l-0.1-0.3c0-1.1,0-2.2,0-3.2l0-0.3l0.1-0.3
	c0.1-0.1,0.2-0.3,0.2-0.4l0-0.2c0.1-0.1,0.2-0.3,0.3-0.4l0.1-0.2c0.1-0.1,0.2-0.3,0.3-0.4c0.1-0.1,0.3-0.2,0.4-0.3l0.2-0.1
	c0.1-0.1,0.4-0.2,0.5-0.3l0.3-0.1c0.2-0.1,0.6-0.3,0.8-0.4l0.3-0.1c0.2-0.1,0.6-0.3,0.8-0.4l0.2-0.2c0.1-0.1,0.3-0.2,0.3-0.3
	l0.1-0.2c0-0.1,0.1-0.3,0.2-0.4l0.1-0.2c0-0.1,0.1-0.3,0.1-0.4c-0.1-0.1-0.2-0.2-0.2-0.3c-0.1-0.1-0.4-0.4-0.6-0.5l-0.2-0.1
	c-0.1-0.1-0.3-0.2-0.4-0.2l-0.3-0.1l-0.2-0.1c-0.1-0.1-0.4-0.2-0.5-0.2l-0.2-0.1c-0.1-0.1-0.4-0.2-0.5-0.2l-0.3-0.1
	c-0.1-0.1-0.4-0.2-0.5-0.2c-0.2-0.1-0.5-0.1-0.6-0.2c-0.4-0.3-0.8-0.4-1.3-0.3c-0.2,0-0.5-0.1-0.6-0.1c-0.1-0.1-0.4-0.2-0.5-0.2
	c-0.2,0-0.7,0-0.9-0.1l-0.3-0.1c-0.1-0.1-0.4-0.2-0.5-0.2c-0.2,0-0.5,0-0.6,0l-0.3-0.1c-0.1-0.1-0.4-0.2-0.5-0.3c-0.2,0-0.5,0-0.6,0
	L13,66.2c-0.2-0.1-0.7-0.2-0.9-0.3l-0.3-0.1c-0.1-0.1-0.4-0.2-0.5-0.2l-0.3,0l-0.3-0.1c-0.1-0.1-0.4-0.2-0.5-0.2l-0.2-0.1
	C10,65,9.8,64.9,9.7,64.8l-0.2-0.1c-0.1-0.1-0.3-0.2-0.4-0.3c-0.1-0.1-0.2-0.2-0.3-0.3c-0.1-0.1-0.2-0.2-0.3-0.3l0-0.2l0.1-0.2
	l0.3,0.1c0.2,0,0.6,0.1,0.8,0.2l0.3,0.1c0.2,0.1,0.6,0.2,0.8,0.3l0.3,0l0.3,0.1c0.2,0.1,0.6,0.2,0.8,0.3l0.3,0l0.3,0.1
	c0.4,0.3,0.8,0.4,1.3,0.3c0.3,0,0.8,0.1,1,0.2c0.5,0.2,1,0.4,1.5,0.2l0.3-0.1c0.3-0.1,1,0,1.1-0.5c0-0.1-0.1-0.3-0.1-0.4
	c-0.1-0.1-0.2-0.2-0.3-0.3l-0.2-0.1c-0.1-0.1-0.3-0.2-0.3-0.2c-0.1-0.1-0.2-0.2-0.3-0.2l-0.2-0.1c-0.1-0.1-0.2-0.2-0.3-0.3
	c0-0.1-0.1-0.3-0.2-0.4l0-0.2l0.1-0.2c0.1-0.1,0.2-0.3,0.2-0.3l0.2-0.1c0.1-0.1,0.2-0.3,0.3-0.3c0.1-0.1,0.2-0.3,0.3-0.4l0.2-0.2
	c0.1-0.2,0.3-0.5,0.5-0.7c0.1-0.1,0.2-0.3,0.3-0.4l0.1-0.2c0.1-0.1,0.2-0.3,0.3-0.4c0.1-0.1,0.2-0.3,0.3-0.4
	c0.1-0.1,0.2-0.3,0.3-0.4c0.1-0.1,0.2-0.3,0.3-0.4c0.1-0.1,0.2-0.3,0.3-0.4l0.2-0.2c0.1-0.1,0.2-0.3,0.3-0.4
	c0.1-0.1,0.2-0.3,0.3-0.5l0.2-0.2c0.1-0.1,0.2-0.3,0.3-0.4c0.1-0.1,0.2-0.3,0.3-0.4l0.1-0.2c0.1-0.1,0.2-0.3,0.3-0.4
	c0.1-0.1,0.2-0.3,0.3-0.4l0.1-0.2c0.1-0.1,0.2-0.3,0.3-0.4c0.1-0.1,0.2-0.3,0.3-0.4l0.1-0.2c0.1-0.1,0.2-0.3,0.3-0.4
	c0.1-0.1,0.2-0.3,0.3-0.4l0.1-0.2c0.1-0.1,0.2-0.3,0.3-0.4c0.1-0.1,0.2-0.3,0.3-0.4l0.1-0.2c0.1-0.1,0.2-0.3,0.3-0.4
	c0.1-0.1,0.2-0.3,0.3-0.4c0.1-0.1,0.2-0.3,0.3-0.4l0.1-0.2c0.1-0.1,0.2-0.3,0.3-0.4c0.1-0.1,0.3-0.3,0.3-0.4
	c0.1-0.1,0.3-0.3,0.3-0.4c0.1-0.1,0.3-0.3,0.3-0.4l0.2-0.2c0.1-0.1,0.3-0.3,0.3-0.4c0.1-0.1,0.3-0.3,0.3-0.4
	c0.1-0.1,0.3-0.3,0.3-0.4s0.3-0.3,0.4-0.4c0.1-0.1,0.3-0.3,0.4-0.3c0.1-0.1,0.3-0.3,0.4-0.3c0.1-0.1,0.3-0.3,0.4-0.3l0.2-0.2
	c0.1-0.1,0.3-0.2,0.4-0.3c0.1-0.1,0.3-0.2,0.4-0.3s0.3-0.2,0.4-0.3c0.1-0.1,0.3-0.2,0.4-0.3l0.2-0.2c0.1-0.1,0.3-0.2,0.4-0.3
	c0.1-0.1,0.3-0.2,0.4-0.3l0.2-0.1c0.1-0.1,0.3-0.2,0.4-0.2l0.2-0.1c0.1-0.1,0.2-0.2,0.3-0.3c0.2-0.1,0.7-0.2,0.9-0.3l0.3-0.1
	c0.2-0.1,0.6-0.3,0.8-0.3c0.1,0,0.5,0,0.6-0.1c0.1-0.1,0.3-0.2,0.5-0.3l0.3-0.1c0.2-0.1,0.7-0.2,0.9-0.2c0.2,0,0.5-0.1,0.7-0.1
	c0.4,0,0.9,0,1.3,0l0.3,0.1l0.1-0.3c0.4-0.1,0.9-0.1,1.3-0.1C42.5,40,43.4,39.9,44.3,39.8L44.3,39.8z"/>
</svg>
