<svg  xmlns="http://www.w3.org/2000/svg" xmlns:xlink="http://www.w3.org/1999/xlink" width="200" height="160">
    <g transform="translate(0,120)">
      <path d="M 0,0 H 90 L 100,-10 L 110,0 H 200 V 40 H 0 Z" style="fill: rgb(0,143,245); stroke: rgba(0,143,245,.5)" />
      <svg width="200" height="40">
        <text x="50%" y="50%" alignment-baseline="middle" text-anchor="middle" style="font-family: sans-serif">
          Network interface API
        </text>
      </svg>
    </g>

    <g transform="translate(0,80)">
      <path d="M 0,0 H 90 L 100,-10 L 110,0 H 200 V 40 H 110 L 100,30 L 90,40 H 0 Z" style="fill: rgb(111,183,33); stroke: rgba(111,183,33,.5)" />
      <svg width="200" height="40">
        <text x="50%" y="50%" alignment-baseline="middle" text-anchor="middle" style="font-family: sans-serif">
          Algorithms
        </text>
      </svg>
    </g>

    <g transform="translate(0,40)">
      <path d="M 0,0 H 90 L 100,-10 L 110,0 H 200 V 40 H 110 L 100,30 L 90,40 H 0 Z" style="fill: rgb(232,140,20); stroke: rgba(232,140,20,.5)" />
      <svg width="200" height="40">
        <text x="50%" y="50%" alignment-baseline="middle" text-anchor="middle" style="font-family: sans-serif">
          Network implementations
        </text>
      </svg>
    </g>

    <g transform="translate(0,0)">
      <path d="M 0,0 H 200 V 40 H 110 L 100,30 L 90,40 H 0 Z" style="fill: rgb(226,34,72); stroke: rgba(226,34,72,.5)" />
      <svg width="200" height="40">
        <text x="50%" y="50%" alignment-baseline="middle" text-anchor="middle" style="font-family: sans-serif">
          Performance tweaks
        </text>
      </svg>
    </g>
</svg>
